# xmcd
#
# Track frame offsets:
#	150
#	10645
#	31955
#	42136
#	58587
#	82718
#	101520
#	120949
#	138497
#	151500
#
# Disc length: 2256 seconds
#
# Revision: 0
# Processed by: cddbd v1.5.1PL0 Copyright (c) Steve Scherf et al.
# Submitted via: dBpowerAMP V4.0
#
DISCID=6108ce0a
DTITLE=John Mayall - Sense of Place
DYEAR=1990
DGENRE=Blues
TTITLE0=I Want to Go
TTITLE1=Congo Square
TTITLE2=Send Me Down to Vicksburg
TTITLE3=Without Her
TTITLE4=Sensitive Kind
TTITLE5=Jacksboro Highway
TTITLE6=Let's Work Together
TTITLE7=I Can't Complain
TTITLE8=Black Cat Moan
TTITLE9=Sugarcane
EXTD=janusz
EXTT0=
EXTT1=
EXTT2=
EXTT3=
EXTT4=
EXTT5=
EXTT6=
EXTT7=
EXTT8=
EXTT9=
PLAYORDER=
